<svg width="40" height="40" viewBox="0 0 40 40" fill="none" xmlns="http://www.w3.org/2000/svg">
<path fill-rule="evenodd" clip-rule="evenodd" d="M14.9993 8.92868C14.9993 5.97001 17.3978 3.57153 20.3565 3.57153C23.3151 3.57153 25.7136 5.97001 25.7136 8.92868V9.59194C25.7136 9.98643 25.3938 10.3062 24.9993 10.3062C24.6048 10.3062 24.285 9.98643 24.285 9.59194V8.92868C24.285 6.75899 22.5261 5.0001 20.3565 5.0001C18.1868 5.0001 16.4279 6.75899 16.4279 8.92868V9.59194C16.4279 9.98643 16.1081 10.3062 15.7136 10.3062C15.3191 10.3062 14.9993 9.98643 14.9993 9.59194V8.92868ZM9.43899 12.6308C9.55477 11.5411 10.474 10.7144 11.5698 10.7144H28.4288C29.5246 10.7144 30.4439 11.5412 30.5596 12.6308L32.6846 32.6308C32.8191 33.8968 31.8268 35.0001 30.5538 35.0001H9.44485C8.1718 35.0001 7.17948 33.8968 7.31399 32.6308L9.43899 12.6308ZM11.5698 12.143C11.2046 12.143 10.8982 12.4185 10.8596 12.7818L8.73456 32.7818C8.68973 33.2038 9.0205 33.5715 9.44485 33.5715H30.5538C30.9781 33.5715 31.3089 33.2038 31.2641 32.7818L29.1391 12.7818C29.1005 12.4185 28.794 12.143 28.4288 12.143H11.5698Z" fill="white"/>
</svg>
