<svg width="40" height="40" viewBox="0 0 40 40" fill="none" xmlns="http://www.w3.org/2000/svg">
<path fill-rule="evenodd" clip-rule="evenodd" d="M13.5713 12.857C13.5713 9.30664 16.4495 6.42847 19.9999 6.42847C23.5503 6.42847 26.4284 9.30664 26.4284 12.857C26.4284 16.4074 23.5503 19.2856 19.9999 19.2856C16.4495 19.2856 13.5713 16.4074 13.5713 12.857ZM19.9999 7.85704C17.2384 7.85704 14.9999 10.0956 14.9999 12.857C14.9999 15.6185 17.2384 17.857 19.9999 17.857C22.7613 17.857 24.9999 15.6185 24.9999 12.857C24.9999 10.0956 22.7613 7.85704 19.9999 7.85704Z" fill="white"/>
<path fill-rule="evenodd" clip-rule="evenodd" d="M7.14307 32.857C7.14307 26.1105 12.9408 20.7141 20.0002 20.7141C27.0596 20.7141 32.8574 26.1105 32.8574 32.857C32.8574 33.2515 32.5376 33.5713 32.1431 33.5713C31.7486 33.5713 31.4288 33.2515 31.4288 32.857C31.4288 26.9798 26.3534 22.1427 20.0002 22.1427C13.647 22.1427 8.57164 26.9798 8.57164 32.857C8.57164 33.2515 8.25184 33.5713 7.85735 33.5713C7.46286 33.5713 7.14307 33.2515 7.14307 32.857Z" fill="white"/>
</svg>
